<svg width="115" height="58" fill="none" xmlns="http://www.w3.org/2000/svg"><path d="M45 48V18h7.422v11.68h12.156V18H72v30h-7.422V35.402H52.422V48H45ZM74 48V18h12.686c2.314 0 4.311.399 5.992 1.196 1.68.784 2.975 1.909 3.884 3.373.923 1.45 1.384 3.954 1.384 5.94 0 2.027-.468 3.746-1.405 5.158-.922 1.411-2.245 2.49-3.967 3.235C90.853 37.634 88.821 38 86.48 38h-8.037V32.43h6.653c1.116 0 2.052-.137 2.81-.411.771-.275 1.35-.7 1.736-1.275.399-.588.599-1.333.599-2.235 0-.902-.2-2.432-.6-3.02-.385-.601-.964-1.045-1.735-1.333-.758-.3-1.701-.451-2.83-.451h-3.658V48H74Zm16.86 0-7.5-13.353h7.954L99 48h-8.14ZM30.75 12.224c0 .66-.29 1.251-.75 1.658v2.791h7.5c2.485 0 4.5 1.992 4.5 4.449v22.43C42 46.007 39.985 48 37.5 48h-18c-2.485 0-4.5-1.992-4.5-4.449v-22.43c0-2.456 2.015-4.448 4.5-4.448H27v-2.79c-.46-.408-.75-1-.75-1.659 0-1.228 1.008-2.224 2.25-2.224 1.243 0 2.25.996 2.25 2.224ZM24 38.361c1.243 0 2.25-3.53 2.25-4.758 0-1.228-2.695-8.403-3.938-8.403-1.242 0-2.2 7.175-2.2 8.403 0 1.229 2.645 4.758 3.888 4.758Zm13.133-4.758c0-1.228-1.057-3.162-2.3-3.162-1.242 0-4.083 1.934-4.083 3.162 0 1.229 1.008 4.758 2.25 4.758 1.243 0 4.133-3.53 4.133-4.758Z" clip-rule="evenodd" fill="currentColor" fill-rule="evenodd"/></svg>